<svg width="138" height="93" viewBox="0 0 138 93" fill="none" xmlns="http://www.w3.org/2000/svg">
<path d="M15.8 59.7964C16.2723 64.2604 17.7483 67.5128 20.228 69.5535C22.7668 71.5941 26.5159 72.6145 31.4753 72.6145C33.896 72.6145 35.9329 72.3275 37.5861 71.7536C39.2392 71.1796 40.5677 70.4144 41.5714 69.4578C42.575 68.5012 43.2835 67.3852 43.6968 66.1098C44.1101 64.7706 44.3168 63.3676 44.3168 61.9009C44.3168 60.8168 44.1692 59.7645 43.8739 58.7442C43.5787 57.6601 43.0474 56.6716 42.2798 55.7788C41.5123 54.886 40.4791 54.1208 39.1802 53.4831C37.8813 52.7816 36.2281 52.2395 34.2207 51.8569L26.1617 50.2307C22.9734 49.593 20.1395 48.7959 17.6598 47.8393C15.18 46.8827 13.0841 45.6392 11.3719 44.1087C9.71875 42.5144 8.44937 40.6012 7.56375 38.3692C6.73718 36.0735 6.32389 33.2994 6.32389 30.0471C6.32389 26.7947 6.9143 23.9569 8.09512 21.5336C9.33498 19.1103 11.0176 17.1015 13.1431 15.5072C15.2686 13.8491 17.7778 12.6375 20.6708 11.8722C23.6229 11.0432 26.8111 10.6287 30.2355 10.6287C34.6045 10.6287 38.2651 11.1707 41.2171 12.2548C44.1692 13.339 46.5603 14.7738 48.3906 16.5594C50.2209 18.2812 51.6083 20.29 52.553 22.5858C53.4976 24.8816 54.1471 27.273 54.5013 29.7601L44.4053 31.4819C43.5787 27.6556 42.1322 24.8178 40.0658 22.9684C38.0584 21.1191 34.8407 20.1944 30.4126 20.1944C27.8738 20.1944 25.7484 20.4495 24.0362 20.9596C22.383 21.406 21.0251 22.0756 19.9624 22.9684C18.9587 23.7975 18.2206 24.7859 17.7483 25.9338C17.335 27.0179 17.1284 28.1658 17.1284 29.3775C17.1284 32.3747 17.8664 34.6067 19.3424 36.0735C20.8775 37.5402 23.5343 38.6881 27.313 39.5171L36.0805 41.3346C42.7522 42.6738 47.6526 44.9696 50.7817 48.2219C53.9109 51.4105 55.4755 56.0339 55.4755 62.0922C55.4755 64.9619 54.9737 67.6403 53.97 70.1274C53.0253 72.5507 51.5493 74.6871 49.5419 76.5364C47.5345 78.322 45.0252 79.725 42.0142 80.7453C39.0621 81.8295 35.6082 82.3715 31.6525 82.3715C23.5639 82.3715 17.2169 80.554 12.6118 76.9191C8.00656 73.2203 5.4678 67.5128 4.99547 59.7964H15.8Z" fill="#333333"/>
<path d="M63.6923 11.6914H77.7365L97.1308 66.0247L117.098 11.6914H130.665V79.9906H120.06V30.3445L101.334 79.9906H92.1628L74.106 30.4402V79.9906H63.6923V11.6914Z" fill="#674DB3"/>
</svg>
