<svg width="178" height="177" viewBox="0 0 178 177" fill="none" xmlns="http://www.w3.org/2000/svg">
    <rect x="0.5" y="17" width="160" height="160" rx="80" fill="#F7F4FF"/>
    <rect x="16.5" y="1" width="160" height="160" rx="80" stroke="#674DB2" stroke-width="2" stroke-linecap="round" stroke-dasharray="10 15"/>
    <path d="M102.813 67.3374L74.8125 94.8374C74.462 95.181 73.9908 95.3734 73.5 95.3734C73.0092 95.3734 72.538 95.181 72.1875 94.8374L60.1875 83.053C60.0117 82.8807 59.8715 82.6754 59.775 82.4488C59.6785 82.2223 59.6276 81.979 59.6251 81.7328C59.6226 81.4865 59.6687 81.2422 59.7606 81.0138C59.8526 80.7854 59.9886 80.5773 60.161 80.4015C60.3333 80.2256 60.5386 80.0855 60.7652 79.9889C60.9917 79.8924 61.235 79.8415 61.4812 79.839C61.7275 79.8366 61.9718 79.8826 62.2002 79.9746C62.4286 80.0665 62.6367 80.2026 62.8125 80.3749L73.5 90.8687L100.188 64.6593C100.361 64.4771 100.569 64.3316 100.8 64.2316C101.031 64.1316 101.28 64.0791 101.531 64.0772C101.783 64.0753 102.032 64.124 102.265 64.2205C102.497 64.317 102.708 64.4593 102.884 64.6389C103.06 64.8185 103.198 65.0317 103.29 65.2658C103.382 65.4999 103.427 65.7502 103.42 66.0017C103.413 66.2532 103.356 66.5008 103.252 66.7297C103.147 66.9587 102.998 67.1643 102.813 67.3343V67.3374ZM132.838 64.6874C132.489 64.333 132.015 64.1312 131.518 64.1265C131.021 64.1218 130.542 64.3146 130.188 64.6624L103.5 90.8718L97.1782 84.6624C97.0025 84.4899 96.7946 84.3536 96.5663 84.2614C96.338 84.1691 96.0937 84.1228 95.8475 84.125C95.6013 84.1272 95.3579 84.1778 95.1313 84.274C94.9046 84.3703 94.6992 84.5102 94.5266 84.6859C94.354 84.8615 94.2177 85.0694 94.1255 85.2977C94.0333 85.526 93.987 85.7703 93.9892 86.0165C93.9913 86.2627 94.042 86.5061 94.1382 86.7327C94.2345 86.9594 94.3744 87.1649 94.55 87.3374L102.188 94.8374C102.538 95.181 103.009 95.3734 103.5 95.3734C103.991 95.3734 104.462 95.181 104.813 94.8374L132.813 67.3374C133.167 66.9892 133.369 66.5145 133.373 66.0176C133.378 65.5207 133.185 65.0423 132.838 64.6874Z" fill="#674DB2"/>
</svg>
