<svg width="178" height="177" viewBox="0 0 178 177" fill="none" xmlns="http://www.w3.org/2000/svg">
    <rect x="0.5" y="17" width="160" height="160" rx="80" fill="#F7F4FF"/>
    <rect x="16.5" y="1" width="160" height="160" rx="80" stroke="#674DB2" stroke-width="2" stroke-linecap="round" stroke-dasharray="10 15"/>
    <path d="M122.825 67.175L105.325 49.675C104.974 49.3233 104.497 49.1254 104 49.125H74C72.8397 49.125 71.7269 49.5859 70.9064 50.4064C70.0859 51.2269 69.625 52.3397 69.625 53.5V108.5C69.625 109.66 70.0859 110.773 70.9064 111.594C71.7269 112.414 72.8397 112.875 74 112.875H119C120.16 112.875 121.273 112.414 122.094 111.594C122.914 110.773 123.375 109.66 123.375 108.5V68.5C123.375 68.0029 123.177 67.5263 122.825 67.175ZM105.875 55.525L116.975 66.625H105.875V55.525ZM119 109.125H74C73.8342 109.125 73.6753 109.059 73.5581 108.942C73.4408 108.825 73.375 108.666 73.375 108.5V53.5C73.375 53.3342 73.4408 53.1753 73.5581 53.0581C73.6753 52.9408 73.8342 52.875 74 52.875H102.125V68.5C102.125 68.9973 102.323 69.4742 102.674 69.8258C103.026 70.1775 103.503 70.375 104 70.375H119.625V108.5C119.625 108.666 119.559 108.825 119.442 108.942C119.325 109.059 119.166 109.125 119 109.125Z" fill="#674DB2"/>
</svg>
