<svg width="178" height="177" viewBox="0 0 178 177" fill="none" xmlns="http://www.w3.org/2000/svg">
    <rect x="0.5" y="17" width="160" height="160" rx="80" fill="#F7F4FF"/>
    <rect x="16.5" y="1" width="160" height="160" rx="80" stroke="#674DB2" stroke-width="2" stroke-linecap="round" stroke-dasharray="10 15"/>
    <path d="M126.1 62.2185L98.6 47.1654C97.957 46.8103 97.2345 46.624 96.5 46.624C95.7655 46.624 95.043 46.8103 94.4 47.1654L66.9 62.2216C66.2119 62.5981 65.6377 63.1527 65.2374 63.8273C64.8372 64.5019 64.6257 65.2716 64.625 66.056V95.9435C64.6257 96.7279 64.8372 97.4977 65.2374 98.1722C65.6377 98.8468 66.2119 99.4014 66.9 99.7779L94.4 114.834C95.0432 115.189 95.7656 115.375 96.5 115.375C97.2344 115.375 97.9568 115.189 98.6 114.834L126.1 99.7779C126.788 99.4014 127.362 98.8468 127.763 98.1722C128.163 97.4977 128.374 96.7279 128.375 95.9435V66.056C128.375 65.2711 128.164 64.5007 127.763 63.8255C127.363 63.1503 126.789 62.5953 126.1 62.2185ZM96.1875 50.4529C96.2795 50.4026 96.3826 50.3762 96.4875 50.3762C96.5924 50.3762 96.6955 50.4026 96.7875 50.4529L122.909 64.7498L96.5 79.1998L70.0906 64.7498L96.1875 50.4529ZM68.6875 96.4904C68.5917 96.4351 68.5122 96.3553 68.4573 96.2592C68.4024 96.1631 68.374 96.0542 68.375 95.9435V68.081L94.625 82.456V110.687L68.6875 96.4904ZM124.287 96.4904L98.375 110.687V82.4498L124.625 68.0748V95.9373C124.627 96.049 124.599 96.1592 124.544 96.2565C124.489 96.3538 124.409 96.4345 124.312 96.4904H124.287Z" fill="#674DB2"/>
</svg>
