<svg width="177" height="177" viewBox="0 0 177 177" fill="none" xmlns="http://www.w3.org/2000/svg">
    <rect y="17" width="160" height="160" rx="80" fill="#F7F4FF"/>
    <rect x="16" y="1" width="160" height="160" rx="80" stroke="#674DB2" stroke-width="2" stroke-linecap="round" stroke-dasharray="10 15"/>
    <path d="M121 49.125H78.5C76.0136 49.125 73.629 50.1127 71.8709 51.8709C70.1127 53.629 69.125 56.0136 69.125 58.5V111C69.125 111.497 69.3225 111.974 69.6742 112.326C70.0258 112.677 70.5027 112.875 71 112.875H116C116.497 112.875 116.974 112.677 117.326 112.326C117.677 111.974 117.875 111.497 117.875 111C117.875 110.503 117.677 110.026 117.326 109.674C116.974 109.323 116.497 109.125 116 109.125H72.875V108.5C72.875 107.008 73.4676 105.577 74.5225 104.523C75.5774 103.468 77.0082 102.875 78.5 102.875H121C121.497 102.875 121.974 102.677 122.326 102.326C122.677 101.974 122.875 101.497 122.875 101V51C122.875 50.5027 122.677 50.0258 122.326 49.6742C121.974 49.3225 121.497 49.125 121 49.125ZM119.125 99.125H78.5C76.4711 99.1221 74.4964 99.7803 72.875 101V58.5C72.875 57.0082 73.4676 55.5774 74.5225 54.5225C75.5774 53.4676 77.0082 52.875 78.5 52.875H119.125V99.125Z" fill="#674DB2"/>
</svg>
